<?xml version="1.0" encoding="UTF-8"?>
<!DOCTYPE svg PUBLIC "-//W3C//DTD SVG 1.1//EN" "http://www.w3.org/Graphics/SVG/1.1/DTD/svg11.dtd">
<svg xmlns="http://www.w3.org/2000/svg" version="1.1" width="572px" height="245px" style="shape-rendering:geometricPrecision; text-rendering:geometricPrecision; image-rendering:optimizeQuality; fill-rule:evenodd; clip-rule:evenodd" xmlns:xlink="http://www.w3.org/1999/xlink">
<g><path style="opacity:1" fill="#d0c3c0" d="M 214.5,236.5 C 206.686,231.874 198.686,227.54 190.5,223.5C 186.228,219.293 183.228,214.293 181.5,208.5C 181.28,197.126 180.447,185.793 179,174.5C 178.5,118.168 178.333,61.8343 178.5,5.5C 186.055,4.33665 193.555,4.33665 201,5.5C 200.929,71.0641 200.429,136.564 199.5,202C 200.227,203.399 200.727,204.899 201,206.5C 201.333,205.5 201.667,204.5 202,203.5C 203.014,207.099 203.847,210.765 204.5,214.5C 207.343,216.524 209.343,219.191 210.5,222.5C 210.291,223.086 209.957,223.586 209.5,224C 211,226.167 212.833,228 215,229.5C 215.483,230.448 215.649,231.448 215.5,232.5C 221.083,232.458 226.75,233.291 232.5,235C 232.957,235.414 233.291,235.914 233.5,236.5C 227.215,236.994 220.881,236.994 214.5,236.5 Z"/></g>
<g><path style="opacity:1" fill="#cfc3c0" d="M 60.5,5.5 C 62.5632,6.37154 64.5632,7.53821 66.5,9C 70.8333,9.33333 75.1667,9.66667 79.5,10C 79.8333,10.3333 80.1667,10.6667 80.5,11C 78.913,11.8624 77.2464,12.5291 75.5,13C 76.4162,13.3742 77.2496,13.8742 78,14.5C 82.204,10.545 86.3707,10.545 90.5,14.5C 87.4169,15.5418 84.2502,16.2085 81,16.5C 74.8895,14.7883 68.7228,13.455 62.5,12.5C 61.7703,10.955 60.437,10.1216 58.5,10C 48.8309,9.25878 39.1642,8.92544 29.5,9C 28.9032,10.0617 28.5698,11.2284 28.5,12.5C 29.1573,84.3196 29.8239,155.986 30.5,227.5C 30.5,228.5 30.5,229.5 30.5,230.5C 35.9846,231.652 41.6513,231.818 47.5,231C 54.693,229.232 62.0263,228.232 69.5,228C 78.4646,224.489 87.1313,220.489 95.5,216C 97.8087,215.244 99.8087,215.744 101.5,217.5C 105.547,216.073 109.547,214.74 113.5,213.5C 113.5,214.5 113.5,215.5 113.5,216.5C 110.326,218.005 107.159,219.672 104,221.5C 101.865,222.127 99.6982,222.627 97.5,223C 97.8333,223.333 98.1667,223.667 98.5,224C 94.9532,224.307 91.6199,225.14 88.5,226.5C 88.5,227.5 88.5,228.5 88.5,229.5C 88.1667,229.5 87.8333,229.5 87.5,229.5C 79.3156,229.978 71.3156,231.145 63.5,233C 61.8807,233.236 60.8807,234.069 60.5,235.5C 60.1667,235.5 59.8333,235.5 59.5,235.5C 55.1667,235.5 50.8333,235.5 46.5,235.5C 33.1667,235.5 19.8333,235.5 6.5,235.5C 6.5,158.5 6.5,81.5 6.5,4.5C 24.5114,4.37834 42.5114,4.71168 60.5,5.5 Z"/></g>
<g><path style="opacity:0.858" fill="#cfc3c0" d="M 62.5,12.5 C 60.5,12.5 58.5,12.5 56.5,12.5C 56.1667,12.5 55.8333,12.5 55.5,12.5C 47.4167,10.6095 39.0833,9.60949 30.5,9.5C 30.5,82.1667 30.5,154.833 30.5,227.5C 29.8239,155.986 29.1573,84.3196 28.5,12.5C 28.5698,11.2284 28.9032,10.0617 29.5,9C 39.1642,8.92544 48.8309,9.25878 58.5,10C 60.437,10.1216 61.7703,10.955 62.5,12.5 Z"/></g>
<g><path style="opacity:1" fill="#cdc2c1" d="M 388.5,21.5 C 419.002,73.1653 449.002,125.165 478.5,177.5C 479.241,181.292 480.241,184.959 481.5,188.5C 482.5,188.5 483.5,188.5 484.5,188.5C 484.516,192.06 484.016,195.393 483,198.5C 484.83,200.158 486.164,202.158 487,204.5C 488.085,203.707 489.252,203.04 490.5,202.5C 493.478,208.697 496.145,215.031 498.5,221.5C 501.588,221.639 504.255,222.639 506.5,224.5C 506.428,151.124 504.761,77.7909 501.5,4.5C 504.777,4.21614 507.943,4.54948 511,5.5C 511.5,82.1659 511.667,158.833 511.5,235.5C 504.159,235.666 496.826,235.5 489.5,235C 488.098,233.658 488.431,232.824 490.5,232.5C 492.135,233.046 493.801,233.38 495.5,233.5C 495.64,231.876 494.973,230.71 493.5,230C 490.183,229.502 486.85,229.335 483.5,229.5C 483.912,227.027 482.912,225.694 480.5,225.5C 443.079,162.331 406.412,98.6644 370.5,34.5C 369.829,33.1529 369.829,31.9862 370.5,31C 368.436,27.7038 366.769,24.2038 365.5,20.5C 364.041,20.5674 362.708,20.2341 361.5,19.5C 361.539,18.2438 361.039,17.2438 360,16.5C 359.501,21.8229 359.334,27.1563 359.5,32.5C 360.738,84.0069 362.405,135.34 364.5,186.5C 364.5,188.167 364.5,189.833 364.5,191.5C 364.5,206.5 364.5,221.5 364.5,236.5C 362.167,236.5 359.833,236.5 357.5,236.5C 356.791,235.596 355.791,235.263 354.5,235.5C 353.512,158.522 353.179,81.5223 353.5,4.5C 361.507,4.33362 369.507,4.50029 377.5,5C 380.602,9.36597 383.102,14.1993 385,19.5C 385.816,20.8228 386.983,21.4894 388.5,21.5 Z"/></g>
<g><path style="opacity:1" fill="#cfc3c0" d="M 330.5,3.5 C 331.665,64.6653 331.832,125.999 331,187.5C 330.817,190.365 330.317,193.031 329.5,195.5C 328.88,132.169 328.547,68.8352 328.5,5.5C 325.753,5.18665 323.086,5.51998 320.5,6.5C 322.396,7.46557 324.396,7.7989 326.5,7.5C 326.241,11.0681 324.241,12.4015 320.5,11.5C 321.937,66.3323 323.604,121.166 325.5,176C 325.333,182.833 325.167,189.667 325,196.5C 324.617,197.056 324.117,197.389 323.5,197.5C 324.656,179.331 324.323,161.331 322.5,143.5C 321.68,132.521 321.347,121.521 321.5,110.5C 320.666,74.8285 319.666,39.1619 318.5,3.5C 322.5,3.5 326.5,3.5 330.5,3.5 Z"/></g>
<g><path style="opacity:1" fill="#cfc3c0" d="M 60.5,4.5 C 79.0394,6.29133 96.3728,11.7913 112.5,21C 115.94,23.0421 118.94,25.5421 121.5,28.5C 120.883,28.6107 120.383,28.944 120,29.5C 118.89,27.9632 117.39,27.2965 115.5,27.5C 115.62,30.2048 114.62,30.8715 112.5,29.5C 111.534,27.604 111.201,25.604 111.5,23.5C 110.178,23.33 109.011,23.6634 108,24.5C 107.506,22.8659 107.34,21.1992 107.5,19.5C 105.512,19.1729 103.512,18.8396 101.5,18.5C 99.626,18.3898 98.126,19.0564 97,20.5C 95.984,19.3659 95.3173,19.6992 95,21.5C 94.6258,20.5838 94.1258,19.7504 93.5,19C 95.8718,17.5295 95.8718,16.3628 93.5,15.5C 84.5752,18.2485 84.9085,21.0818 94.5,24C 95.305,25.1127 95.9717,26.2794 96.5,27.5C 84.0047,20.1147 70.6714,15.1147 56.5,12.5C 58.5,12.5 60.5,12.5 62.5,12.5C 68.7228,13.455 74.8895,14.7883 81,16.5C 84.2502,16.2085 87.4169,15.5418 90.5,14.5C 86.3707,10.545 82.204,10.545 78,14.5C 77.2496,13.8742 76.4162,13.3742 75.5,13C 77.2464,12.5291 78.913,11.8624 80.5,11C 80.1667,10.6667 79.8333,10.3333 79.5,10C 75.1667,9.66667 70.8333,9.33333 66.5,9C 64.5632,7.53821 62.5632,6.37154 60.5,5.5C 60.5,5.16667 60.5,4.83333 60.5,4.5 Z"/></g>
<g><path style="opacity:0.969" fill="#cfc3c0" d="M 361.5,19.5 C 362.708,20.2341 364.041,20.5674 365.5,20.5C 366.769,24.2038 368.436,27.7038 370.5,31C 369.829,31.9862 369.829,33.1529 370.5,34.5C 366.749,30.0054 363.749,25.0054 361.5,19.5 Z"/></g>
<g><path style="opacity:0.078" fill="#cfc3c0" d="M 330.5,3.5 C 326.5,3.5 322.5,3.5 318.5,3.5C 319.666,39.1619 320.666,74.8285 321.5,110.5C 319.376,74.6869 318.043,38.6869 317.5,2.5C 322.032,2.18178 326.366,2.51511 330.5,3.5 Z"/></g>
<g><path style="opacity:0.792" fill="#cfc3c0" d="M 388.5,21.5 C 386.983,21.4894 385.816,20.8228 385,19.5C 383.102,14.1993 380.602,9.36597 377.5,5C 369.507,4.50029 361.507,4.33362 353.5,4.5C 353.179,81.5223 353.512,158.522 354.5,235.5C 355.791,235.263 356.791,235.596 357.5,236.5C 355.833,236.5 354.167,236.5 352.5,236.5C 351.334,159.001 351.168,81.3344 352,3.5C 360.421,2.35101 368.921,2.18434 377.5,3C 382.071,8.64389 385.738,14.8106 388.5,21.5 Z"/></g>
<g><path style="opacity:0.067" fill="#cfc3c0" d="M 361.5,19.5 C 360.515,23.6344 360.182,27.9677 360.5,32.5C 360.167,32.5 359.833,32.5 359.5,32.5C 359.334,27.1563 359.501,21.8229 360,16.5C 361.039,17.2438 361.539,18.2438 361.5,19.5 Z"/></g>
<g><path style="opacity:0.119" fill="#cfc3c0" d="M 202.5,3.5 C 203.333,66.9987 203.833,130.665 204,194.5C 204.583,198.832 205.083,203.165 205.5,207.5C 204.023,203.767 203.189,199.767 203,195.5C 202.5,131.501 202.333,67.5009 202.5,3.5 Z"/></g>
<g><path style="opacity:0.236" fill="#cfc3c0" d="M 55.5,12.5 C 48.6505,12.0264 41.8172,11.3597 35,10.5C 33.8926,10.5852 32.8926,10.9186 32,11.5C 31.5,84.1659 31.3333,156.833 31.5,229.5C 34.1667,229.5 36.8333,229.5 39.5,229.5C 36.7131,230.477 33.7131,230.81 30.5,230.5C 30.5,229.5 30.5,228.5 30.5,227.5C 30.5,154.833 30.5,82.1667 30.5,9.5C 39.0833,9.60949 47.4167,10.6095 55.5,12.5 Z"/></g>
<g><path style="opacity:1" fill="#cdc1bf" d="M 121.5,28.5 C 133.721,38.2263 142.555,50.5596 148,65.5C 158.465,99.2948 159.132,133.295 150,167.5C 145.646,181.887 138.48,194.554 128.5,205.5C 124.83,205.327 122.33,206.993 121,210.5C 120.667,209.833 120.333,209.167 120,208.5C 118.98,212.094 116.813,213.094 113.5,211.5C 113.709,210.914 114.043,210.414 114.5,210C 112.396,209.209 111.063,207.709 110.5,205.5C 109.365,207.707 108.699,210.04 108.5,212.5C 105.792,213.449 103.126,213.449 100.5,212.5C 105.043,207.62 109.543,202.62 114,197.5C 116.035,194.439 117.201,191.105 117.5,187.5C 117.935,184.843 118.935,182.509 120.5,180.5C 122.173,179.657 123.34,178.324 124,176.5C 130.39,154.87 132.224,132.87 129.5,110.5C 129.565,103.476 129.232,96.4756 128.5,89.5C 129.043,89.44 129.376,89.1067 129.5,88.5C 128.12,80.7321 127.12,72.8988 126.5,65C 125.289,61.827 123.622,58.9936 121.5,56.5C 121.608,55.5581 121.941,54.7247 122.5,54C 124.085,53.9152 125.418,53.7486 126.5,53.5C 125.846,51.8849 125.346,50.2182 125,48.5C 123.989,47.6634 122.822,47.33 121.5,47.5C 121.5,48.5 121.5,49.5 121.5,50.5C 119.315,50.2964 117.315,49.6298 115.5,48.5C 112.777,45.4137 110.277,42.0804 108,38.5C 104.271,34.6019 100.438,30.9352 96.5,27.5C 95.9717,26.2794 95.305,25.1127 94.5,24C 84.9085,21.0818 84.5752,18.2485 93.5,15.5C 95.8718,16.3628 95.8718,17.5295 93.5,19C 94.1258,19.7504 94.6258,20.5838 95,21.5C 95.3173,19.6992 95.984,19.3659 97,20.5C 98.126,19.0564 99.626,18.3898 101.5,18.5C 103.512,18.8396 105.512,19.1729 107.5,19.5C 107.34,21.1992 107.506,22.8659 108,24.5C 109.011,23.6634 110.178,23.33 111.5,23.5C 111.201,25.604 111.534,27.604 112.5,29.5C 114.62,30.8715 115.62,30.2048 115.5,27.5C 117.39,27.2965 118.89,27.9632 120,29.5C 120.383,28.944 120.883,28.6107 121.5,28.5 Z"/></g>
<g><path style="opacity:1" fill="#cfc3c0" d="M 128.5,89.5 C 128.167,89.5 127.833,89.5 127.5,89.5C 125.825,75.1299 121.825,61.4632 115.5,48.5C 117.315,49.6298 119.315,50.2964 121.5,50.5C 121.5,49.5 121.5,48.5 121.5,47.5C 122.822,47.33 123.989,47.6634 125,48.5C 125.346,50.2182 125.846,51.8849 126.5,53.5C 125.418,53.7486 124.085,53.9152 122.5,54C 121.941,54.7247 121.608,55.5581 121.5,56.5C 123.622,58.9936 125.289,61.827 126.5,65C 127.12,72.8988 128.12,80.7321 129.5,88.5C 129.376,89.1067 129.043,89.44 128.5,89.5 Z"/></g>
<g><path style="opacity:0.288" fill="#cfc3c0" d="M 359.5,32.5 C 359.833,32.5 360.167,32.5 360.5,32.5C 362.139,83.824 363.473,135.157 364.5,186.5C 362.405,135.34 360.738,84.0069 359.5,32.5 Z"/></g>
<g><path style="opacity:1" fill="#cfc3c2" d="M 329.5,195.5 C 329.5,196.167 329.5,196.833 329.5,197.5C 327.53,199.988 325.696,202.655 324,205.5C 323.503,202.854 323.336,200.187 323.5,197.5C 324.117,197.389 324.617,197.056 325,196.5C 325.167,189.667 325.333,182.833 325.5,176C 323.604,121.166 321.937,66.3323 320.5,11.5C 324.241,12.4015 326.241,11.0681 326.5,7.5C 324.396,7.7989 322.396,7.46557 320.5,6.5C 323.086,5.51998 325.753,5.18665 328.5,5.5C 328.547,68.8352 328.88,132.169 329.5,195.5 Z"/></g>
<g><path style="opacity:0.024" fill="#cfc3c0" d="M 127.5,89.5 C 127.833,89.5 128.167,89.5 128.5,89.5C 129.232,96.4756 129.565,103.476 129.5,110.5C 129.827,119.682 129.493,128.682 128.5,137.5C 128.719,121.481 128.386,105.481 127.5,89.5 Z"/></g>
<g><path style="opacity:0.83" fill="#cfc3c0" d="M 512.5,3.5 C 513.833,81.1667 513.833,158.833 512.5,236.5C 504.493,236.666 496.493,236.5 488.5,236C 487.473,235.487 486.473,234.987 485.5,234.5C 483.44,231.76 481.774,228.76 480.5,225.5C 482.912,225.694 483.912,227.027 483.5,229.5C 486.85,229.335 490.183,229.502 493.5,230C 494.973,230.71 495.64,231.876 495.5,233.5C 493.801,233.38 492.135,233.046 490.5,232.5C 488.431,232.824 488.098,233.658 489.5,235C 496.826,235.5 504.159,235.666 511.5,235.5C 511.667,158.833 511.5,82.1659 511,5.5C 507.943,4.54948 504.777,4.21614 501.5,4.5C 504.761,77.7909 506.428,151.124 506.5,224.5C 504.255,222.639 501.588,221.639 498.5,221.5C 496.145,215.031 493.478,208.697 490.5,202.5C 489.252,203.04 488.085,203.707 487,204.5C 486.164,202.158 484.83,200.158 483,198.5C 484.016,195.393 484.516,192.06 484.5,188.5C 483.5,188.5 482.5,188.5 481.5,188.5C 480.241,184.959 479.241,181.292 478.5,177.5C 487.105,191.794 495.771,206.127 504.5,220.5C 504.77,207.418 504.77,194.085 504.5,180.5C 503.344,121.495 502.011,62.4953 500.5,3.5C 504.5,3.5 508.5,3.5 512.5,3.5 Z"/></g>
<g><path style="opacity:0.098" fill="#cfc3c0" d="M 512.5,3.5 C 508.5,3.5 504.5,3.5 500.5,3.5C 502.011,62.4953 503.344,121.495 504.5,180.5C 502.564,122.481 500.564,64.3144 498.5,6C 498.495,3.83725 499.495,2.33725 501.5,1.5C 505.303,2.10372 508.969,2.77038 512.5,3.5 Z"/></g>
<g><path style="opacity:0.996" fill="#cfc3c0" d="M 129.5,110.5 C 132.224,132.87 130.39,154.87 124,176.5C 123.34,178.324 122.173,179.657 120.5,180.5C 125.206,166.565 127.872,152.231 128.5,137.5C 129.493,128.682 129.827,119.682 129.5,110.5 Z"/></g>
<g><path style="opacity:0.157" fill="#cfc3c0" d="M 322.5,143.5 C 324.323,161.331 324.656,179.331 323.5,197.5C 323.167,197.5 322.833,197.5 322.5,197.5C 323.232,179.516 323.232,161.516 322.5,143.5 Z"/></g>
<g><path style="opacity:0.82" fill="#cfc3c0" d="M 60.5,4.5 C 60.5,4.83333 60.5,5.16667 60.5,5.5C 42.5114,4.71168 24.5114,4.37834 6.5,4.5C 6.5,81.5 6.5,158.5 6.5,235.5C 19.8333,235.5 33.1667,235.5 46.5,235.5C 33.0102,236.496 19.3435,236.829 5.5,236.5C 4.33441,159.001 4.16774,81.3344 5,3.5C 12.2569,2.84149 19.5902,2.50816 27,2.5C 38.3709,2.35179 49.5375,3.01846 60.5,4.5 Z"/></g>
<g><path style="opacity:0.706" fill="#cfc3c0" d="M 535.5,2.5 C 543.84,2.3336 552.173,2.50027 560.5,3C 561,3.5 561.5,4 562,4.5C 562.616,81.5668 562.616,158.567 562,235.5C 561.5,236.667 560.667,237.5 559.5,238C 552.5,238.667 545.5,238.667 538.5,238C 535.321,237.82 533.988,236.154 534.5,233C 534.293,156.113 534.626,79.2797 535.5,2.5 Z"/></g>
<g><path style="opacity:1" fill="#d0c3c0" d="M 536.5,4.5 C 544.5,4.5 552.5,4.5 560.5,4.5C 560.824,81.8622 560.491,159.195 559.5,236.5C 551.833,236.5 544.167,236.5 536.5,236.5C 536.5,159.167 536.5,81.8333 536.5,4.5 Z"/></g>
<g><path style="opacity:1" fill="#cfc3c0" d="M 322.5,197.5 C 322.833,197.5 323.167,197.5 323.5,197.5C 323.336,200.187 323.503,202.854 324,205.5C 325.696,202.655 327.53,199.988 329.5,197.5C 322.905,225.327 305.238,240.327 276.5,242.5C 274.833,242.5 273.167,242.5 271.5,242.5C 278.021,240.959 284.688,239.459 291.5,238C 293.167,236.833 294.833,235.667 296.5,234.5C 291.266,233.486 286.266,234.153 281.5,236.5C 279.929,235.691 278.262,235.357 276.5,235.5C 287.265,233.962 297.265,230.129 306.5,224C 314.808,216.871 320.141,208.037 322.5,197.5 Z"/></g>
<g><path style="opacity:1" fill="#cfc3c0" d="M 117.5,187.5 C 117.201,191.105 116.035,194.439 114,197.5C 109.543,202.62 105.043,207.62 100.5,212.5C 103.126,213.449 105.792,213.449 108.5,212.5C 108.699,210.04 109.365,207.707 110.5,205.5C 111.063,207.709 112.396,209.209 114.5,210C 114.043,210.414 113.709,210.914 113.5,211.5C 116.813,213.094 118.98,212.094 120,208.5C 120.333,209.167 120.667,209.833 121,210.5C 122.33,206.993 124.83,205.327 128.5,205.5C 117.432,217.044 104.098,225.044 88.5,229.5C 88.5,228.5 88.5,227.5 88.5,226.5C 91.6199,225.14 94.9532,224.307 98.5,224C 98.1667,223.667 97.8333,223.333 97.5,223C 99.6982,222.627 101.865,222.127 104,221.5C 107.159,219.672 110.326,218.005 113.5,216.5C 113.5,215.5 113.5,214.5 113.5,213.5C 109.547,214.74 105.547,216.073 101.5,217.5C 99.8087,215.744 97.8087,215.244 95.5,216C 87.1313,220.489 78.4646,224.489 69.5,228C 62.0263,228.232 54.693,229.232 47.5,231C 41.6513,231.818 35.9846,231.652 30.5,230.5C 33.7131,230.81 36.7131,230.477 39.5,229.5C 40.1667,229.5 40.8333,229.5 41.5,229.5C 45.5138,229.666 49.5138,229.499 53.5,229C 54.4158,228.722 55.0825,228.222 55.5,227.5C 75.9125,224.543 93.4125,215.877 108,201.5C 111.421,196.929 114.588,192.263 117.5,187.5 Z"/></g>
<g><path style="opacity:0.388" fill="#cfc3c0" d="M 364.5,191.5 C 365.496,206.342 365.996,221.342 366,236.5C 361.4,237.823 356.9,237.823 352.5,236.5C 354.167,236.5 355.833,236.5 357.5,236.5C 359.833,236.5 362.167,236.5 364.5,236.5C 364.5,221.5 364.5,206.5 364.5,191.5 Z"/></g>
<g><path style="opacity:0.663" fill="#cfc3c0" d="M 55.5,227.5 C 55.0825,228.222 54.4158,228.722 53.5,229C 49.5138,229.499 45.5138,229.666 41.5,229.5C 45.9949,228.578 50.6616,227.911 55.5,227.5 Z"/></g>
<g><path style="opacity:1" fill="#cfc3c0" d="M 190.5,223.5 C 198.686,227.54 206.686,231.874 214.5,236.5C 222.151,238.565 229.818,240.565 237.5,242.5C 222.205,241.901 208.205,237.401 195.5,229C 193.627,227.296 191.96,225.463 190.5,223.5 Z"/></g>
<g><path style="opacity:0.778" fill="#cfc3c0" d="M 87.5,229.5 C 78.9215,232.892 69.9215,234.892 60.5,235.5C 60.8807,234.069 61.8807,233.236 63.5,233C 71.3156,231.145 79.3156,229.978 87.5,229.5 Z"/></g>
<g><path style="opacity:0.149" fill="#cfc3c0" d="M 46.5,235.5 C 50.8333,235.5 55.1667,235.5 59.5,235.5C 48.8735,236.997 38.0402,237.664 27,237.5C 19.6587,237.5 12.492,237.166 5.5,236.5C 19.3435,236.829 33.0102,236.496 46.5,235.5 Z"/></g>
<g><path style="opacity:0.182" fill="#cfc3c0" d="M 485.5,234.5 C 486.473,234.987 487.473,235.487 488.5,236C 496.493,236.5 504.493,236.666 512.5,236.5C 504.01,237.657 495.343,237.824 486.5,237C 485.748,236.329 485.414,235.496 485.5,234.5 Z"/></g>
<g><path style="opacity:1" fill="#cfc3c0" d="M 202.5,3.5 C 202.333,67.5009 202.5,131.501 203,195.5C 203.189,199.767 204.023,203.767 205.5,207.5C 210.239,222.061 220.239,230.895 235.5,234C 249.093,236.621 262.76,237.121 276.5,235.5C 278.262,235.357 279.929,235.691 281.5,236.5C 286.266,234.153 291.266,233.486 296.5,234.5C 294.833,235.667 293.167,236.833 291.5,238C 284.688,239.459 278.021,240.959 271.5,242.5C 260.833,242.5 250.167,242.5 239.5,242.5C 238.833,242.5 238.167,242.5 237.5,242.5C 229.818,240.565 222.151,238.565 214.5,236.5C 220.881,236.994 227.215,236.994 233.5,236.5C 233.291,235.914 232.957,235.414 232.5,235C 226.75,233.291 221.083,232.458 215.5,232.5C 215.649,231.448 215.483,230.448 215,229.5C 212.833,228 211,226.167 209.5,224C 209.957,223.586 210.291,223.086 210.5,222.5C 209.343,219.191 207.343,216.524 204.5,214.5C 203.847,210.765 203.014,207.099 202,203.5C 201.667,204.5 201.333,205.5 201,206.5C 200.727,204.899 200.227,203.399 199.5,202C 200.429,136.564 200.929,71.0641 201,5.5C 193.555,4.33665 186.055,4.33665 178.5,5.5C 178.333,61.8343 178.5,118.168 179,174.5C 180.447,185.793 181.28,197.126 181.5,208.5C 178.769,202.232 177.269,195.565 177,188.5C 176.333,126.833 176.333,65.1667 177,3.5C 185.598,2.17214 194.098,2.17214 202.5,3.5 Z"/></g>
<g><path style="opacity:0.633" fill="#cfc3c0" d="M 239.5,242.5 C 250.167,242.5 260.833,242.5 271.5,242.5C 273.167,242.5 274.833,242.5 276.5,242.5C 272.833,243.167 269.167,243.833 265.5,244.5C 261.833,244.5 258.167,244.5 254.5,244.5C 249.5,243.833 244.5,243.167 239.5,242.5 Z"/></g>
</svg>
